<svg width="280" height="281" viewBox="0 0 280 281" fill="none" xmlns="http://www.w3.org/2000/svg">
<path d="M140 24.1387C75.6704 24.1387 23.3334 76.4758 23.3334 140.805C23.3334 205.135 75.6704 257.472 140 257.472C204.33 257.472 256.667 205.135 256.667 140.805C256.667 76.4758 204.33 24.1387 140 24.1387ZM140 41.6387C158.502 41.6387 175.736 46.7705 190.54 55.5498C189.984 56.1299 189.528 56.8304 189.242 57.6462L188.079 60.9502C187.234 63.3477 188.049 66.0185 190.085 67.5469L192.113 69.0622C195.222 71.3955 195.222 76.0599 192.113 78.3932L189.549 80.3187C187.782 81.6428 185.42 81.8514 183.442 80.8656L176.23 77.2539C175.42 76.8456 174.526 76.6387 173.621 76.6387H159.289C157.585 76.6387 155.971 77.3889 154.857 78.6781L141.39 94.3665C139.978 96.0115 139.605 98.3183 140.41 100.337L141.641 103.424C143.198 107.315 148.225 108.347 151.188 105.384C151.188 105.384 154.947 103.647 156.201 98.0124C156.72 95.6849 158.931 94.1387 161.317 94.1387H166.831C168.336 94.1387 169.774 94.7182 170.853 95.7565L173.735 98.5023C176.104 100.766 176.154 104.538 173.838 106.854L169.326 111.354C168.79 111.891 168.152 112.327 167.446 112.618L149.502 120.081C149.006 120.285 148.532 120.557 148.112 120.89L131.922 133.707C130.89 134.524 129.612 134.972 128.299 134.972H125.417C120.587 134.972 116.667 138.892 116.667 143.722C116.667 148.552 120.587 152.472 125.417 152.472H126.772C129.1 152.472 131.386 151.834 133.369 150.615L145.23 143.369C147.65 141.887 150.785 142.367 152.658 144.508L157.876 150.478C158.984 151.744 160.588 152.472 162.274 152.472H163.333C166.553 152.472 169.167 149.859 169.167 146.639V143.107C169.167 141.631 169.724 140.204 170.728 139.131L177.393 131.976C177.83 131.503 178.342 131.105 178.908 130.802L189.743 124.992C193.634 122.909 198.333 125.731 198.333 130.141V134.972C198.333 138.192 195.72 140.805 192.5 140.805H186.667C183.447 140.805 180.833 143.419 180.833 146.639C180.833 149.859 183.447 152.472 186.667 152.472H195.234C197.171 152.472 198.98 153.437 200.065 155.047L212.7 173.743C214.608 176.566 218.517 177.16 221.177 175.031L225.313 171.727C226.695 170.618 227.5 168.943 227.5 167.169V164.139C227.5 160.919 224.887 158.305 221.667 158.305C218.447 158.305 215.833 155.692 215.833 152.472C215.833 149.252 218.447 146.639 221.667 146.639H223.763C224.306 146.639 224.844 146.562 225.369 146.422L239.076 142.503C238.672 166.402 229.895 188.188 215.503 205.086C215.709 204.453 215.833 203.789 215.833 203.115V199.64C215.833 196.14 212.999 193.305 209.499 193.305C207.364 193.305 205.379 192.231 204.201 190.446L191.383 167.511C189.628 164.822 186.136 163.883 183.26 165.312L169.793 172.695C168.3 173.442 166.561 173.562 164.974 173.037L143.202 165.153C139.305 163.858 135.095 163.858 131.204 165.153L111.414 173.037C109.822 173.562 108.498 174.705 107.746 176.204L100.466 190.719C99.6372 192.364 99.5718 194.274 100.272 195.971L107.21 212.719C108.19 215.088 110.494 216.639 113.055 216.639H125.166C127.161 216.639 129.04 215.696 130.236 214.109L132.025 211.728C134.556 208.351 139.622 208.351 142.153 211.728L144.569 214.952C145.391 216.043 145.833 217.376 145.833 218.746V239.676C143.891 239.788 141.971 239.972 140 239.972C85.1281 239.972 40.8334 195.677 40.8334 140.805C40.8334 132.997 41.8255 125.438 43.5222 118.156L52.7849 112.846C53.5665 112.397 54.4386 112.174 55.337 112.174H59.017C61.8636 112.174 64.1781 109.86 64.1781 107.013V88.6927C64.1781 85.846 66.4812 83.5316 69.3278 83.5316C71.5562 83.5316 73.5328 82.1058 74.2269 79.9883L83.501 59.2982C88.2112 56.0311 93.2361 53.2215 98.4945 50.7988L87.8304 74.0638C86.4596 78.1996 89.5341 82.472 93.8916 82.472H106.937C109.789 82.472 112.518 81.3458 114.536 79.3275L127.023 66.8405C128.219 65.6447 128.892 64.0263 128.892 62.3288V59.6855C128.892 56.168 126.035 53.3053 122.511 53.3053H119.868C118.177 53.3053 116.547 53.978 115.345 55.1738L111.392 59.1387L111.323 51.9268C111.304 49.7118 110.179 47.8941 108.578 46.777C118.455 43.4889 129.001 41.6387 140 41.6387ZM122.5 94.1387C119.28 94.1387 116.667 96.752 116.667 99.972V105.805C116.667 109.025 119.28 111.639 122.5 111.639C125.72 111.639 128.333 109.025 128.333 105.805V99.972C128.333 96.752 125.72 94.1387 122.5 94.1387Z" fill="#2388FF"/>
</svg>
