<svg width="193" height="57" viewBox="0 0 193 57" fill="none" xmlns="http://www.w3.org/2000/svg">
<path d="M36.1484 42.3394L37.7677 45.1428C34.4977 47.595 31.1044 49.7825 27.5348 51.7815C27.1432 51.807 23.6715 49.5078 23.043 49.1253L24.6623 46.3218C25.2184 46.6455 27.1745 47.854 27.6817 47.7971C28.2182 47.7363 35.2437 43.0338 36.1484 42.3394Z" fill="#46C8A0"/>
<path d="M36.8838 50.895L35.7051 48.8292C39.4959 46.271 43.371 43.2851 46.3061 39.7558C46.8407 39.1143 48.9397 35.6419 49.1767 35.5517C49.345 35.4869 51.6752 35.5242 51.7535 35.6262C48.693 42.2905 42.7639 46.8615 36.8819 50.895H36.8838Z" fill="#46C8A0"/>
<path d="M35.7047 48.8306L36.8835 50.8964C33.8877 52.9504 30.8507 54.8749 27.6805 56.6503C26.9913 56.7386 21.3775 53.1485 20.3926 52.5188L21.4225 50.3058C22.1235 50.7473 27.1832 53.7115 27.5337 53.6998C30.2613 52.1068 33.0888 50.5982 35.7047 48.8306Z" fill="#5BDCB8"/>
<path d="M37.7668 45.143L36.1475 42.3396C38.6793 40.3955 41.1092 38.1531 42.9949 35.5537L47.0442 35.6283C44.8257 39.65 41.3481 42.4593 37.7687 45.143H37.7668Z" fill="#37AC9F"/>
<path d="M19.067 42.4864L16.8583 44.9936C13.4454 42.3805 10.1284 39.4594 8.02344 35.626C8.14484 35.473 11.7007 35.4808 11.9259 35.5514C12.1511 35.6221 14.5536 38.6687 15.1645 39.2396C16.3707 40.3637 17.757 41.4839 19.067 42.4845V42.4864Z" fill="#1A7981"/>
<path d="M19.0661 42.4863C20.6424 43.6909 22.9666 45.3309 24.6623 46.3217L23.043 49.1251C20.9283 47.8401 18.8233 46.4982 16.8594 44.9935L19.0681 42.4863H19.0661Z" fill="#37AC9F"/>
<path d="M8.75996 39.8301C10.5438 41.9488 12.7819 44.0068 14.9436 45.7312L13.6179 47.6498C11.1664 45.688 9.14962 43.8793 7.13867 41.4545C7.18175 40.7286 8.12554 40.0557 8.758 39.832L8.75996 39.8301Z" fill="#1C8583"/>
<path d="M21.4221 50.3044L20.3921 52.5174C18.0287 51.0087 15.8102 49.402 13.6191 47.6481L14.9448 45.7295C16.7834 47.1969 19.4288 49.0489 21.424 50.3025L21.4221 50.3044Z" fill="#46C8A0"/>
<path d="M8.76006 39.8304C8.1276 40.054 7.18185 40.7269 7.14073 41.4528C5.63105 39.6302 4.05284 37.8215 3.23828 35.5516C3.812 35.6792 5.48224 35.379 5.88952 35.5516C6.12645 35.6517 8.17655 39.1359 8.76006 39.8304Z" fill="#1A7981"/>
<path d="M53.3731 31.4223C53.2674 30.4787 52.0103 30.3708 51.1644 30.0941L51.3113 13.0558L27.3855 2.65629L3.60468 13.0558L3.75154 30.3158C4.04721 30.9809 11.0708 30.155 11.7757 30.5375C12.0087 30.665 12.0146 32.364 12.2907 32.6759L1.91094 32.7504C0.581408 25.7448 1.06114 18.5411 0.953443 11.4334L27.3855 0L53.9625 11.2863C53.4417 17.4895 54.8808 25.4486 53.3731 31.4243V31.4223Z" fill="#46C8A0"/>
<path d="M27.0905 4.72022L28.1204 4.86736L49.6906 14.3821C49.5026 15.9241 50.0137 27.3477 49.4693 27.7322C49.346 27.8205 46.8533 27.7205 46.45 27.6577L46.2287 16.5205L27.5291 8.40646L8.60816 16.7422C8.47697 18.0723 8.87054 27.4674 8.3869 27.7322C8.26158 27.8009 5.62601 27.7499 5.51635 27.6577C5.00138 27.2281 5.60643 15.7907 5.3695 14.233L27.0885 4.71826L27.0905 4.72022Z" fill="url(#paint0_linear_698_254)"/>
<path d="M53.3733 31.4219C53.2969 31.726 53.3302 32.5951 53.0052 32.75H42.8447L43.1384 30.5371L51.1626 30.0938C52.0085 30.3704 53.2656 30.4783 53.3714 31.4219H53.3733Z" fill="#1C8583"/>
<path d="M26.0593 20.8012C28.2682 20.7404 33.4622 20.7055 35.1873 21.8334C35.6729 22.1512 37.7883 24.6244 37.9861 24.6362C38.1612 24.6442 38.9754 23.4406 40.0476 24.0463C41.2514 24.727 39.1999 25.2998 38.5007 25.1528C38.7535 25.9432 39.7424 26.4453 39.9734 27.2182C40.1457 27.7909 40.1514 33.1574 39.9734 33.4135C39.8872 33.5332 37.1201 33.6153 37.0281 33.2661L39.3113 32.1596H15.9002C15.6202 33.005 18.514 32.6076 17.8884 33.4135C17.8042 33.5214 15.2754 33.5662 15.1638 33.4877C14.8056 33.2274 14.3488 25.5994 16.5623 25.3012C16.5099 24.9389 14.3716 25.2695 14.5007 24.4164C14.5351 24.1966 15.4718 23.724 15.7517 23.7534C15.9434 23.773 16.948 24.6461 17.0769 24.6381C17.3119 24.6205 19.0104 22.4569 19.4334 22.1313C21.2524 20.7288 23.8429 20.864 26.0593 20.8032V20.8012ZM31.95 30.8315C31.5309 30.6706 23.3856 30.6667 22.9685 30.8315L22.9666 30.8334C22.7454 30.9198 22.4341 31.7114 22.6726 31.8647L32.4646 31.7905C32.5038 31.7395 32.0968 30.8865 31.95 30.8315ZM16.1931 29.7993C15.8452 29.9392 15.9352 31.4884 16.0466 31.5688C16.2483 31.712 20.8324 31.9886 20.9793 31.7905C19.9395 29.4641 18.2921 30.1955 16.1931 29.7993ZM38.7224 29.8002C36.559 30.2042 35.0964 29.512 33.9373 31.7914C35.6035 31.5011 40.2161 32.7485 38.7224 29.8002ZM39.0164 27.145C38.7729 27.0639 34.5212 28.0602 34.6736 29.2836C34.8009 29.4406 38.4865 29.1424 38.7234 29.062C39.2714 28.873 39.4333 27.2842 39.0164 27.143V27.145ZM15.8992 27.143C15.7857 27.2175 15.7682 28.7659 15.8992 28.9125C16.0519 29.0813 20.3424 29.4834 20.3914 29.1342C19.4319 27.5022 17.4675 27.6825 15.8992 27.143ZM35.3357 22.5717C33.3754 21.0711 26.7298 21.2125 24.1453 21.3911V21.393C21.6821 21.5637 19.2539 21.7756 18.4021 24.4907L36.7341 24.4164C36.8666 24.255 35.4884 22.6874 35.3357 22.5717Z" fill="#67C1D0"/>
<path d="M78.8789 29.5539H74.0549V14.6259H67.6469V10.3059H85.2869V14.6259H78.8789V29.5539ZM96.7368 29.5539H89.1768C87.1608 29.5539 85.7208 28.1619 85.7208 26.1459V17.9619C85.7208 15.9459 87.1608 14.6019 89.1768 14.6019H96.7368C98.7528 14.6019 100.193 15.9459 100.193 17.9619V26.1459C100.193 28.1619 98.7528 29.5539 96.7368 29.5539ZM95.4888 25.3299V18.8259H90.4248V25.3299H95.4888ZM113.326 29.5539H108.55C106.534 29.5539 105.094 28.2099 105.094 26.1939V18.8259H102.43V14.6019H105.094V10.2819H109.798V14.6019H113.326V18.8259H109.798V25.6179H113.326V29.5539ZM126.599 29.5539H119.039C116.975 29.5539 115.583 28.1619 115.583 26.0979V23.6739C115.583 21.6099 116.735 20.4579 118.799 20.4579H125.351V18.7299H120.527V19.7379H115.823V18.0579C115.823 15.9939 117.215 14.6019 119.279 14.6019H126.599C128.615 14.6019 130.055 15.9459 130.055 17.9619V26.1939C130.055 28.2099 128.615 29.5539 126.599 29.5539ZM125.351 25.4259V23.8419H120.287V25.4259H125.351ZM137.91 29.5539H133.206V9.44189H137.91V29.5539ZM152.059 29.5539H144.499C142.483 29.5539 141.043 28.1619 141.043 26.1459V17.9619C141.043 15.9459 142.483 14.6019 144.499 14.6019H152.059C154.075 14.6019 155.515 15.9459 155.515 17.9619V26.1459C155.515 28.1619 154.075 29.5539 152.059 29.5539ZM150.811 25.3299V18.8259H145.747V25.3299H150.811ZM169.344 29.5539H161.784C159.72 29.5539 158.328 28.1619 158.328 26.0979V23.6739C158.328 21.6099 159.48 20.4579 161.544 20.4579H168.096V18.7299H163.272V19.7379H158.568V18.0579C158.568 15.9939 159.96 14.6019 162.024 14.6019H169.344C171.36 14.6019 172.8 15.9459 172.8 17.9619V26.1939C172.8 28.2099 171.36 29.5539 169.344 29.5539ZM168.096 25.4259V23.8419H163.032V25.4259H168.096ZM190.183 29.5539H179.167C177.151 29.5539 175.711 28.1619 175.711 26.1459V17.9619C175.711 15.9459 177.151 14.6019 179.167 14.6019H185.479V9.44189H190.183V29.5539ZM185.479 25.3299V18.8259H180.415V25.3299H185.479Z" fill="white"/>
<path d="M72.8269 49.4507H68.5869C68.0469 49.4507 67.6669 49.0707 67.6669 48.5307V42.4907C67.6669 41.9507 68.0469 41.5707 68.5869 41.5707H72.6769V42.4907H68.8669C68.7669 42.4907 68.7069 42.5507 68.7069 42.6507V44.8707H72.4269V45.7907H68.7069V48.3707C68.7069 48.4707 68.7669 48.5307 68.8669 48.5307H72.8269V49.4507ZM78.5757 49.4507H77.3357L75.8457 47.4507L74.3657 49.4507H73.1257L75.2557 46.6607L73.2757 44.2007H74.5157L75.8457 45.8707L77.1857 44.2007H78.4257L76.4357 46.6607L78.5757 49.4507ZM83.0012 49.4507H80.0312V51.8007H79.0112V44.2007H83.0012C83.5412 44.2007 83.9212 44.5807 83.9212 45.1207V48.5307C83.9212 49.0707 83.5412 49.4507 83.0012 49.4507ZM82.9012 48.3907V45.2607C82.9012 45.1607 82.8412 45.1007 82.7412 45.1007H80.0312V48.5507H82.7412C82.8412 48.5507 82.9012 48.4907 82.9012 48.3907ZM88.7735 49.4507H85.7035C85.1635 49.4507 84.7835 49.0707 84.7835 48.5307V45.1207C84.7835 44.5807 85.1635 44.2007 85.7035 44.2007H88.7735C89.3135 44.2007 89.6935 44.5807 89.6935 45.1207V48.5307C89.6935 49.0707 89.3135 49.4507 88.7735 49.4507ZM88.6735 48.3907V45.2607C88.6735 45.1607 88.6135 45.1007 88.5135 45.1007H85.9635C85.8635 45.1007 85.8035 45.1607 85.8035 45.2607V48.3907C85.8035 48.4907 85.8635 48.5507 85.9635 48.5507H88.5135C88.6135 48.5507 88.6735 48.4907 88.6735 48.3907ZM91.5977 49.4507H90.5777V45.1207C90.5777 44.5807 90.9577 44.2007 91.4977 44.2007H93.7377V45.1007H91.7577C91.6577 45.1007 91.5977 45.1607 91.5977 45.2607V49.4507ZM97.4812 49.4507H96.1212C95.5812 49.4507 95.2012 49.0707 95.2012 48.5307V45.1007H94.0012V44.2007H95.2012V41.7107H96.2212V44.2007H97.6412V45.1007H96.2212V48.3907C96.2212 48.4907 96.2812 48.5507 96.3812 48.5507H97.4812V49.4507ZM106.028 49.4507H101.468C100.928 49.4507 100.548 49.0707 100.548 48.5307V42.4907C100.548 41.9507 100.928 41.5707 101.468 41.5707H106.028C106.568 41.5707 106.948 41.9507 106.948 42.4907V44.5007H105.908V42.6507C105.908 42.5507 105.848 42.4907 105.748 42.4907H101.748C101.648 42.4907 101.588 42.5507 101.588 42.6507V48.3707C101.588 48.4707 101.648 48.5307 101.748 48.5307H105.748C105.848 48.5307 105.908 48.4707 105.908 48.3707V46.5307H106.948V48.5307C106.948 49.0707 106.568 49.4507 106.028 49.4507ZM111.645 49.4507H108.725C108.185 49.4507 107.805 49.0707 107.805 48.5307V45.1207C107.805 44.5807 108.185 44.2007 108.725 44.2007H111.745C112.285 44.2007 112.665 44.5807 112.665 45.1207V46.5107C112.665 47.0507 112.335 47.3807 111.795 47.3807H108.825V48.3907C108.825 48.4907 108.885 48.5507 108.985 48.5507H111.385C111.485 48.5507 111.545 48.4907 111.545 48.3907V47.8107H112.565V48.5307C112.565 49.0707 112.185 49.4507 111.645 49.4507ZM111.645 46.3407V45.2607C111.645 45.1607 111.585 45.1007 111.485 45.1007H108.985C108.885 45.1007 108.825 45.1607 108.825 45.2607V46.5007H111.485C111.585 46.5007 111.645 46.4407 111.645 46.3407ZM114.522 49.4507H113.502V45.1207C113.502 44.5807 113.882 44.2007 114.422 44.2007H116.662V45.1007H114.682C114.582 45.1007 114.522 45.1607 114.522 45.2607V49.4507ZM120.405 49.4507H119.045C118.505 49.4507 118.125 49.0707 118.125 48.5307V45.1007H116.925V44.2007H118.125V41.7107H119.145V44.2007H120.565V45.1007H119.145V48.3907C119.145 48.4907 119.205 48.5507 119.305 48.5507H120.405V49.4507ZM122.292 42.8407H121.272V41.2207H122.292V42.8407ZM122.292 49.4507H121.272V44.2007H122.292V49.4507ZM125.226 49.4507H124.206V45.1007H122.956V44.2007H124.206V42.1407C124.206 41.6007 124.586 41.2207 125.126 41.2207H126.436V42.1207H125.386C125.286 42.1207 125.226 42.1807 125.226 42.2807V44.2007H126.596V45.1007H125.226V49.4507ZM128.323 42.8407H127.303V41.2207H128.323V42.8407ZM128.323 49.4507H127.303V44.2007H128.323V49.4507ZM133.157 49.4507H130.187C129.647 49.4507 129.267 49.0707 129.267 48.5307V45.1207C129.267 44.5807 129.647 44.2007 130.187 44.2007H133.157C133.697 44.2007 134.077 44.5807 134.077 45.1207V46.0607H133.057V45.2607C133.057 45.1607 132.997 45.1007 132.897 45.1007H130.447C130.347 45.1007 130.287 45.1607 130.287 45.2607V48.3907C130.287 48.4907 130.347 48.5507 130.447 48.5507H132.897C132.997 48.5507 133.057 48.4907 133.057 48.3907V47.3207H134.077V48.5307C134.077 49.0707 133.697 49.4507 133.157 49.4507ZM138.784 49.4507H135.814C135.274 49.4507 134.894 49.0707 134.894 48.5307V47.1307C134.894 46.5907 135.224 46.2607 135.764 46.2607H138.684V45.2607C138.684 45.1607 138.624 45.1007 138.524 45.1007H136.174C136.074 45.1007 136.014 45.1607 136.014 45.2607V45.8307H134.994V45.1207C134.994 44.5807 135.374 44.2007 135.914 44.2007H138.784C139.324 44.2007 139.704 44.5807 139.704 45.1207V48.5307C139.704 49.0707 139.324 49.4507 138.784 49.4507ZM138.684 48.3907V47.1407H136.074C135.974 47.1407 135.914 47.2007 135.914 47.3007V48.3907C135.914 48.4907 135.974 48.5507 136.074 48.5507H138.524C138.624 48.5507 138.684 48.4907 138.684 48.3907ZM143.722 49.4507H142.362C141.822 49.4507 141.442 49.0707 141.442 48.5307V45.1007H140.242V44.2007H141.442V41.7107H142.462V44.2007H143.882V45.1007H142.462V48.3907C142.462 48.4907 142.522 48.5507 142.622 48.5507H143.722V49.4507ZM148.3 49.4507H145.38C144.84 49.4507 144.46 49.0707 144.46 48.5307V45.1207C144.46 44.5807 144.84 44.2007 145.38 44.2007H148.4C148.94 44.2007 149.32 44.5807 149.32 45.1207V46.5107C149.32 47.0507 148.99 47.3807 148.45 47.3807H145.48V48.3907C145.48 48.4907 145.54 48.5507 145.64 48.5507H148.04C148.14 48.5507 148.2 48.4907 148.2 48.3907V47.8107H149.22V48.5307C149.22 49.0707 148.84 49.4507 148.3 49.4507ZM148.3 46.3407V45.2607C148.3 45.1607 148.24 45.1007 148.14 45.1007H145.64C145.54 45.1007 145.48 45.1607 145.48 45.2607V46.5007H148.14C148.24 46.5007 148.3 46.4407 148.3 46.3407ZM156.407 49.4507H153.437V51.8007H152.417V44.2007H156.407C156.947 44.2007 157.327 44.5807 157.327 45.1207V48.5307C157.327 49.0707 156.947 49.4507 156.407 49.4507ZM156.307 48.3907V45.2607C156.307 45.1607 156.247 45.1007 156.147 45.1007H153.437V48.5507H156.147C156.247 48.5507 156.307 48.4907 156.307 48.3907ZM159.309 49.4507H158.289V41.2207H159.309V49.4507ZM164.122 49.4507H161.152C160.612 49.4507 160.232 49.0707 160.232 48.5307V47.1307C160.232 46.5907 160.562 46.2607 161.102 46.2607H164.022V45.2607C164.022 45.1607 163.962 45.1007 163.862 45.1007H161.512C161.412 45.1007 161.352 45.1607 161.352 45.2607V45.8307H160.332V45.1207C160.332 44.5807 160.712 44.2007 161.252 44.2007H164.122C164.662 44.2007 165.042 44.5807 165.042 45.1207V48.5307C165.042 49.0707 164.662 49.4507 164.122 49.4507ZM164.022 48.3907V47.1407H161.412C161.312 47.1407 161.252 47.2007 161.252 47.3007V48.3907C161.252 48.4907 161.312 48.5507 161.412 48.5507H163.862C163.962 48.5507 164.022 48.4907 164.022 48.3907ZM169.061 49.4507H167.701C167.161 49.4507 166.781 49.0707 166.781 48.5307V45.1007H165.581V44.2007H166.781V41.7107H167.801V44.2007H169.221V45.1007H167.801V48.3907C167.801 48.4907 167.861 48.5507 167.961 48.5507H169.061V49.4507ZM171.838 49.4507H170.818V45.1007H169.568V44.2007H170.818V42.1407C170.818 41.6007 171.198 41.2207 171.738 41.2207H173.048V42.1207H171.998C171.898 42.1207 171.838 42.1807 171.838 42.2807V44.2007H173.208V45.1007H171.838V49.4507ZM177.571 49.4507H174.501C173.961 49.4507 173.581 49.0707 173.581 48.5307V45.1207C173.581 44.5807 173.961 44.2007 174.501 44.2007H177.571C178.111 44.2007 178.491 44.5807 178.491 45.1207V48.5307C178.491 49.0707 178.111 49.4507 177.571 49.4507ZM177.471 48.3907V45.2607C177.471 45.1607 177.411 45.1007 177.311 45.1007H174.761C174.661 45.1007 174.601 45.1607 174.601 45.2607V48.3907C174.601 48.4907 174.661 48.5507 174.761 48.5507H177.311C177.411 48.5507 177.471 48.4907 177.471 48.3907ZM180.395 49.4507H179.375V45.1207C179.375 44.5807 179.755 44.2007 180.295 44.2007H182.535V45.1007H180.555C180.455 45.1007 180.395 45.1607 180.395 45.2607V49.4507ZM190.319 49.4507H189.299V45.2607C189.299 45.1607 189.239 45.1007 189.139 45.1007H187.259V49.4507H186.239V45.1007H184.179V49.4507H183.159V44.2007H189.399C189.939 44.2007 190.319 44.5807 190.319 45.1207V49.4507Z" fill="white"/>
<defs>
<linearGradient id="paint0_linear_698_254" x1="33.0239" y1="8.34221" x2="23.7972" y2="32.5314" gradientUnits="userSpaceOnUse">
<stop stop-color="#59DABA"/>
<stop offset="1" stop-color="#09596D"/>
</linearGradient>
</defs>
</svg>
