<svg width="54" height="57" viewBox="0 0 54 57" fill="none" xmlns="http://www.w3.org/2000/svg">
<path d="M35.1933 42.3394L36.8126 45.1428C33.5426 47.595 30.1493 49.7825 26.5797 51.7815C26.1881 51.807 22.7164 49.5078 22.0879 49.1253L23.7072 46.3218C24.2633 46.6455 26.2194 47.854 26.7266 47.7971C27.2631 47.7363 34.2887 43.0338 35.1933 42.3394Z" fill="#46C8A0"/>
<path d="M35.9297 50.895L34.751 48.8292C38.5418 46.271 42.4168 43.2851 45.352 39.7558C45.8866 39.1143 47.9856 35.6419 48.2225 35.5517C48.3909 35.4869 50.7211 35.5242 50.7994 35.6262C47.7389 42.2905 41.8098 46.8615 35.9278 50.895H35.9297Z" fill="#46C8A0"/>
<path d="M34.7497 48.8306L35.9284 50.8964C32.9326 52.9504 29.8956 54.8749 26.7255 56.6503C26.0362 56.7386 20.4224 53.1485 19.4375 52.5188L20.4674 50.3058C21.1684 50.7473 26.2281 53.7115 26.5786 53.6998C29.3062 52.1068 32.1337 50.5982 34.7497 48.8306Z" fill="#5BDCB8"/>
<path d="M36.8127 45.143L35.1934 42.3396C37.7252 40.3955 40.1551 38.1531 42.0408 35.5537L46.0901 35.6283C43.8716 39.65 40.394 42.4593 36.8146 45.143H36.8127Z" fill="#37AC9F"/>
<path d="M18.1129 42.4864L15.9042 44.9936C12.4913 42.3805 9.17427 39.4594 7.06934 35.626C7.19074 35.473 10.7466 35.4808 10.9718 35.5514C11.197 35.6221 13.5995 38.6687 14.2104 39.2396C15.4166 40.3637 16.8029 41.4839 18.1129 42.4845V42.4864Z" fill="#1A7981"/>
<path d="M18.112 42.4863C19.6883 43.6909 22.0125 45.3309 23.7082 46.3217L22.0889 49.1251C19.9742 47.8401 17.8692 46.4982 15.9053 44.9935L18.114 42.4863H18.112Z" fill="#37AC9F"/>
<path d="M7.80488 39.8301C9.58869 41.9488 11.8268 44.0068 13.9885 45.7312L12.6629 47.6498C10.2114 45.688 8.19454 43.8793 6.18359 41.4545C6.22667 40.7286 7.17046 40.0557 7.80292 39.832L7.80488 39.8301Z" fill="#1C8583"/>
<path d="M20.468 50.3044L19.438 52.5174C17.0746 51.0087 14.8561 49.402 12.665 47.6481L13.9907 45.7295C15.8293 47.1969 18.4747 49.0489 20.4699 50.3025L20.468 50.3044Z" fill="#46C8A0"/>
<path d="M7.80498 39.8304C7.17252 40.054 6.22677 40.7269 6.18565 41.4528C4.67597 39.6302 3.09776 37.8215 2.2832 35.5516C2.85692 35.6792 4.52716 35.379 4.93444 35.5516C5.17137 35.6517 7.22147 39.1359 7.80498 39.8304Z" fill="#1A7981"/>
<path d="M52.42 31.4223C52.3143 30.4787 51.0572 30.3708 50.2113 30.0941L50.3582 13.0558L26.4324 2.65629L2.65155 13.0558L2.79841 30.3158C3.09408 30.9809 10.1177 30.155 10.8226 30.5375C11.0556 30.665 11.0615 32.364 11.3376 32.6759L0.957818 32.7504C-0.371717 25.7448 0.108012 18.5411 0.000317811 11.4334L26.4324 0L53.0094 11.2863C52.4885 17.4895 53.9277 25.4486 52.42 31.4243V31.4223Z" fill="#46C8A0"/>
<path d="M26.1364 4.72022L27.1663 4.86736L48.7365 14.3821C48.5485 15.9241 49.0596 27.3477 48.5152 27.7322C48.3919 27.8205 45.8992 27.7205 45.4959 27.6577L45.2746 16.5205L26.575 8.40646L7.65406 16.7422C7.52287 18.0723 7.91644 27.4674 7.4328 27.7322C7.30748 27.8009 4.67191 27.7499 4.56225 27.6577C4.04728 27.2281 4.65232 15.7907 4.4154 14.233L26.1344 4.71826L26.1364 4.72022Z" fill="url(#paint0_linear_667_5626)"/>
<path d="M52.4202 31.4219C52.3438 31.726 52.3771 32.5951 52.0521 32.75H41.8916L42.1853 30.5371L50.2095 30.0938C51.0554 30.3704 52.3125 30.4783 52.4182 31.4219H52.4202Z" fill="#1C8583"/>
<path d="M25.1062 20.8013C27.3149 20.7405 32.5088 20.7048 34.2341 21.8325C34.7197 22.1504 36.8352 24.6245 37.033 24.6363C37.2081 24.6441 38.0224 23.4399 39.0945 24.0454C40.2987 24.7262 38.2467 25.299 37.5476 25.1519C37.8002 25.9425 38.7892 26.4453 39.0203 27.2183C39.1925 27.7925 39.1984 33.1599 39.0203 33.4136C38.9341 33.5333 36.167 33.6153 36.075 33.2661L38.3582 32.1597H14.947C14.667 33.0052 17.5614 32.6075 16.9353 33.4136C16.8511 33.5215 14.3223 33.5663 14.2107 33.4878C13.8524 33.2295 13.3954 25.5995 15.6091 25.3013C15.5578 24.9385 13.4184 25.2698 13.5476 24.4165C13.5812 24.1968 14.5186 23.724 14.7986 23.7534C14.9903 23.7731 15.9949 24.6462 16.1238 24.6382C16.3588 24.6206 18.0573 22.457 18.4802 22.1314C20.2993 20.7288 22.8897 20.8641 25.1062 20.8033V20.8013ZM30.9968 30.8316C30.5778 30.6707 22.4337 30.6668 22.0154 30.8316L22.0134 30.8335C21.7922 30.9198 21.4809 31.7115 21.7195 31.8648L31.5115 31.7906C31.5506 31.7396 31.1438 30.8868 30.9968 30.8316ZM15.24 29.7993C14.8915 29.9386 14.9819 31.4904 15.0935 31.5689C15.2973 31.7121 19.8783 31.9887 20.0252 31.7906C18.9854 29.4643 17.339 30.1956 15.24 29.7993ZM37.7693 29.7993C35.6058 30.2034 34.1433 29.5113 32.9841 31.7906C34.6507 31.5004 39.2632 32.7478 37.7693 29.7993ZM38.0632 27.145C37.8216 27.0634 33.5682 28.0601 33.7205 29.2837C33.8477 29.4406 37.5299 29.1426 37.7693 29.062C38.3176 28.8737 38.4803 27.2843 38.0632 27.1431V27.145ZM14.9461 27.1431C14.8325 27.2176 14.8149 28.7675 14.9461 28.9126C15.0996 29.0814 19.3883 29.4835 19.4373 29.1343C18.4778 27.5025 16.5143 27.6824 14.9461 27.1431ZM34.3816 22.5718C32.4211 21.0715 25.7769 21.2126 23.1921 21.3911V21.3931C20.729 21.5638 18.3008 21.7758 17.449 24.4908L35.78 24.4165C35.9132 24.2557 34.5343 22.6876 34.3816 22.5718Z" fill="#67C1D0"/>
<defs>
<linearGradient id="paint0_linear_667_5626" x1="32.0698" y1="8.34221" x2="22.8431" y2="32.5314" gradientUnits="userSpaceOnUse">
<stop stop-color="#59DABA"/>
<stop offset="1" stop-color="#09596D"/>
</linearGradient>
</defs>
</svg>
